<?xml version="1.0" encoding="UTF-8" standalone="no"?>
<!-- Created with Inkscape (http://www.inkscape.org/) -->

<svg
   version="1.1"
   id="svg1"
   width="2048"
   height="1365.3333"
   viewBox="0 0 2048 1365.3333"
   sodipodi:docname="logo.svg"
   inkscape:version="1.4.2 (f4327f4, 2025-05-13)"
   xmlns:inkscape="http://www.inkscape.org/namespaces/inkscape"
   xmlns:sodipodi="http://sodipodi.sourceforge.net/DTD/sodipodi-0.dtd"
   xmlns="http://www.w3.org/2000/svg"
   xmlns:svg="http://www.w3.org/2000/svg">
  <defs
     id="defs1" />
  <sodipodi:namedview
     id="namedview1"
     pagecolor="#ffffff"
     bordercolor="#000000"
     borderopacity="0.25"
     inkscape:showpageshadow="2"
     inkscape:pageopacity="0.0"
     inkscape:pagecheckerboard="0"
     inkscape:deskcolor="#d1d1d1"
     inkscape:zoom="1"
     inkscape:cx="895.5"
     inkscape:cy="937.5"
     inkscape:window-width="1920"
     inkscape:window-height="1009"
     inkscape:window-x="-8"
     inkscape:window-y="-8"
     inkscape:window-maximized="1"
     inkscape:current-layer="g1" />
  <g
     inkscape:groupmode="layer"
     inkscape:label="Image"
     id="g1">
    <path
       style="fill:#000000"
       d="m 102.045,944.86439 c -2.264107,-1.65555 -2.390019,-3.20177 -1.54721,-19 1.05494,-19.77458 1.71954,-34.36403 2.84853,-62.53111 0.44089,-11 1.63604,-35 2.65589,-53.33333 1.01984,-18.33333 2.20485,-42.33333 2.63336,-53.33333 1.13712,-29.19025 1.96037,-47.75936 2.71917,-61.33333 0.36895,-6.6 1.29786,-23.67804 2.06426,-37.9512 0.76639,-14.27317 2.03411,-26.72317 2.81715,-27.66667 1.12225,-1.35223 14.22451,-1.71546 61.8802,-1.71546 58.25612,0 60.50637,0.0932 61.82682,2.56048 0.94734,1.77013 0.75441,17.71817 -0.62503,51.66666 -1.09745,27.00841 -2.2674,50.90619 -2.59988,53.10619 -0.56181,3.71732 -1.09771,16.68948 -2.72658,66 -0.35125,10.63333 -0.95066,23.23333 -1.33203,27.99999 -0.73473,9.18339 -1.51148,26.10646 -2.60093,56.66667 -1.88474,52.86875 -2.49599,57.21838 -8.35374,59.44549 -1.76655,0.67165 -28.85817,1.22117 -60.20361,1.22117 -45.775,0 -57.47677,-0.3547 -59.45637,-1.80222 z m 602.52441,0.7818 c -2.89635,-1.98325 -3.18773,-6.28469 -1.90089,-28.06208 0.72315,-12.23796 1.92725,-36.95083 2.67577,-54.91749 1.52369,-36.57276 2.10166,-49.17554 3.97458,-86.66667 0.71437,-14.3 1.61855,-36.49999 2.00929,-49.33333 0.39073,-12.83333 0.98862,-27.83333 1.32865,-33.33333 0.34002,-5.5 0.99498,-21.1 1.45546,-34.66666 0.60332,-17.77483 1.36512,-25.50486 2.72656,-27.66667 l 1.88931,-3 76.96926,0.0204 c 42.3331,0.0112 77.79921,0.54605 78.81358,1.18848 1.5653,0.99135 1.59127,8.70382 0.1717,50.97958 -0.91994,27.39633 -1.80992,53.11152 -1.97773,57.14485 -0.60539,14.5501 -3.3949,78.73313 -4.8967,112.66666 -0.84384,19.06666 -1.70464,39.76666 -1.91289,46 -0.20826,6.23333 -0.70367,18.53333 -1.10093,27.33333 -0.39725,8.8 -0.73851,16.70714 -0.75835,17.57143 -0.0199,0.86428 -0.97894,2.51428 -2.13132,3.66666 -1.85681,1.85681 -10.84657,2.09292 -79,2.07482 -42.29762,-0.0112 -77.54852,-0.46123 -78.33535,-1 z m 322.76389,-0.5224 c -1.4666,-0.74929 -7.6831,-7.60291 -13.8144,-15.23025 -12.6313,-15.71338 -12.7746,-16.51901 -4.4892,-25.22693 2.7909,-2.93333 22.074,-24.53333 42.8513,-47.99999 20.7772,-23.46667 38.7185,-43.41667 39.8694,-44.33334 3.1827,-2.53486 354.6941,-2.43136 358.1634,0.10546 2.7335,1.99876 3.0767,9.10555 1.6851,34.89454 -0.4353,8.06667 -1.1963,28.76667 -1.6912,46 -0.4949,17.23333 -1.05,32.83333 -1.2336,34.66666 -0.1836,1.83334 -0.4103,5.84048 -0.5039,8.90477 -0.3271,10.70723 20.0895,9.77256 -211.2654,9.67166 -138.0685,-0.0602 -207.792,-0.54349 -209.5715,-1.45258 z m 549.1154,-0.1435 c -1.5866,-0.90586 -20.1144,-22.04701 -41.173,-46.98034 -21.0586,-24.93334 -39.191,-46.05836 -40.2943,-46.9445 -1.7084,-1.37221 -1.8782,-5.03052 -1.1447,-24.66666 1.1159,-29.8738 2.8745,-64.3597 5.3573,-105.0555 1.0962,-17.96667 2.3046,-41.97984 2.6854,-53.36261 0.8121,-24.26963 1.9746,-35.99166 3.7989,-38.30405 2.0717,-2.62595 124.0508,-2.40299 126.2366,0.23074 1.1107,1.33837 1.342,6.15072 0.7849,16.33334 -0.4344,7.93975 -1.9683,41.43592 -3.4088,74.43591 -3.9982,91.59829 -5.2598,119.99573 -6.042,136 -0.3942,8.06666 -1.1929,29.68117 -1.7748,48.03224 -1.0807,34.07789 -1.7179,37.91051 -6.7504,40.60386 -3.6921,1.97596 -34.7072,1.71468 -38.2751,-0.32243 z M 964.40633,869.30106 C 952.81618,855.35 941.83333,840.8 940,836.96773 c -4.72592,-9.87875 -4.66866,-15.14716 1.82383,-167.79713 1.15139,-27.07125 2.04372,-37.40448 3.36789,-39 1.62447,-1.95737 9.03996,-2.17064 75.47498,-2.17064 63.2448,0 73.9041,0.27788 75.3026,1.96306 1.5904,1.91629 1.3524,10.29615 -3.3152,116.7036 -1.2264,27.95856 -2.0062,32.96587 -5.9725,38.35194 -2.0175,2.73977 -16.1227,18.78139 -31.3449,35.64806 -39.4549,43.71749 -57.00886,63.26551 -61.9614,68.99999 -2.37502,2.75 -5.12321,5 -6.10709,5 -0.98389,0 -11.27173,-11.4145 -22.86188,-25.36555 z m -576.5369,-126.3011 c -63.88629,-78.81999 -86.77352,-107.40061 -87.4798,-109.24115 -0.37838,-0.98605 0.0526,-2.68517 0.9578,-3.77583 1.43239,-1.72592 15.96146,-1.98302 112.06575,-1.98302 h 110.42 l 6.04556,7 c 15.94003,18.45656 58.09502,72.59862 58.10733,74.63058 0.0118,1.95288 -34.89099,45.76371 -56.32686,70.70275 l -6.58973,7.66666 H 474.70647 424.34346 Z M 602,689.04139 c -1.46667,-0.71661 -12.72352,-13.92437 -25.01522,-29.35056 -17.78769,-22.32369 -22.03721,-28.42277 -20.82293,-29.88589 1.25442,-1.51148 9.96802,-1.77606 49.01523,-1.48829 46.36218,0.34167 47.4972,0.41329 47.8101,3.01665 0.21234,1.7667 -7.36886,11.8913 -22.46369,29.99999 -12.53131,15.03334 -23.47554,27.71082 -24.32051,28.17219 -0.84497,0.46137 -2.73631,0.25253 -4.20298,-0.46409 z M 117.76966,604.24582 c -2.0926,-2.09261 -2.11177,-3.47626 -0.45583,-32.91252 0.70131,-12.46667 1.93743,-36.76667 2.74694,-54 0.8095,-17.23333 1.69242,-33.43333 1.96204,-36 0.26962,-2.56666 0.52478,-10.51666 0.56704,-17.66666 0.0434,-7.34606 0.63246,-13 1.35439,-13 1.30963,0 26.04375,30.15037 85.16403,103.81313 21.69767,27.03489 33.5584,42.88178 33.5584,44.83674 0,6.67064 -0.11682,6.68289 -63.76864,6.69121 -47.55975,0.006 -59.71047,-0.344 -61.12837,-1.7619 z m 168.44411,1.06188 c -9.69978,-0.8624 -6.013,3.11076 -58.18723,-62.70694 -22.35207,-28.1971 -50.86984,-64.16746 -63.37282,-79.93412 -12.50298,-15.76667 -25.8626,-32.64882 -29.68803,-37.51589 l -6.95535,-8.84922 21.46909,-25.15078 c 11.80799,-13.83292 24.74441,-28.90077 28.74759,-33.4841 l 7.27851,-8.33334 58.24724,0.0204 c 32.03598,0.0112 58.86533,0.46123 59.62078,1 0.75546,0.53877 9.49229,11.17958 19.41518,23.64625 9.92289,12.46666 46.76779,58.66666 81.87755,102.66666 35.10976,44 71.8746,90.08263 81.69965,102.40584 9.82504,12.32322 17.55969,23.19813 17.18811,24.16646 -0.37159,0.96834 -2.67326,2.09195 -5.11483,2.49692 -5.5258,0.91654 -201.54905,0.52106 -212.22544,-0.42816 z m 263.03998,-0.26477 c -5.36412,-1.98434 -8.44064,1.98932 71.85148,-92.80396 10.75879,-12.70188 22.26144,-26.30311 25.56144,-30.22495 3.3,-3.92185 12.59439,-14.8294 20.6542,-24.23901 8.05981,-9.4096 32.22959,-37.66417 53.71062,-62.78794 l 39.05642,-45.67956 63.51181,0.34623 c 46.45857,0.25327 63.64918,0.7585 64.0234,1.88164 0.28138,0.84447 -5.06872,8.09426 -11.8891,16.11064 -28.38071,33.35747 -67.24141,79.58634 -147.41644,175.36726 -27.32534,32.64414 -50.60763,60.12084 -51.73843,61.05932 -1.60019,1.32804 -15.65521,1.73083 -63.39716,1.81684 -33.73764,0.0608 -62.50534,-0.32014 -63.92824,-0.84651 z m 171.21602,0.2038 c -4.20262,-1.55552 -4.75272,-3.18456 -3.75958,-11.13337 l 0.89627,-7.17349 78.19677,-91.18781 c 43.00822,-50.15329 80.19719,-93.71477 82.64214,-96.80328 4.91729,-6.2116 8.65547,-7.48832 7.65801,-2.61547 -0.33775,1.65 -0.98989,19.09647 -1.44919,38.76994 -0.4593,19.67346 -1.06427,38.57346 -1.34437,41.99999 -0.2801,3.42654 -1.45173,31.43006 -2.60362,62.23006 -1.15189,30.8 -2.68038,58.16415 -3.39664,60.80922 l -1.30229,4.80923 -10.33697,0.68631 c -16.67429,1.10708 -142.06526,0.76914 -145.20053,-0.39133 z m 240.26633,0.36414 c -6.56181,-0.214 -12.74605,-1.06588 -13.74275,-1.89307 -1.92174,-1.5949 -1.84662,-6.42772 0.94892,-61.05117 0.69432,-13.56666 1.66527,-36.36666 2.15768,-50.66666 0.4924,-14.3 1.0464,-28.4 1.23111,-31.33333 0.18471,-2.93333 0.73708,-14.33333 1.22749,-25.33333 1.4666,-32.89639 1.96391,-36.77943 5.19987,-40.60123 1.59954,-1.88912 10.89923,-12.87666 20.66599,-24.41677 l 17.75775,-20.982 h 56.75734 56.7573 l -0.9486,29.66667 c -0.5217,16.31666 -1.16,33.86666 -1.4184,39 -0.678,13.46807 -1.8053,39.06405 -3.4647,78.66666 -4.0746,97.24333 -4.5311,104.57076 -6.6461,106.68575 -1.7684,1.76842 -10.3105,2.08501 -63.2983,2.34594 -33.6897,0.1659 -66.62279,0.12654 -73.1846,-0.0875 z m 546.3733,-0.94311 c -2.5572,-1.86987 -2.5452,-5.02345 0.1974,-51.7731 1.1891,-20.26886 2.5454,-33.91329 3.4835,-35.04363 2.3629,-2.84718 124.1448,-2.74078 126.5112,0.11053 1.2737,1.53475 1.3,7.99034 0.1209,29.66667 -2.8884,53.09722 -3.0564,54.9614 -5.1058,56.66225 -2.7518,2.28381 -122.108,2.64346 -125.2072,0.37728 z M 1198.357,485.49979 c -2.4675,-1.7284 -2.5694,-2.95153 -1.7771,-21.33334 1.5624,-36.24648 0.6285,-33.08175 14.5509,-49.31333 6.6925,-7.80256 20.5759,-23.80164 30.852,-35.5535 10.2761,-11.75186 20.2951,-23.30186 22.2645,-25.66666 l 3.5805,-4.29965 h 352.0074 c 233.6741,0 352.285,0.44907 352.833,1.33584 1.0477,1.69519 -104.9795,128.87176 -111.3349,133.543 -3.2108,2.36 -15.4051,2.46236 -331.846,2.78559 -276.9937,0.28294 -328.9232,0.048 -331.1303,-1.49795 z"
       id="path1" />
  </g>
</svg>
